<svg width="32" height="32" viewBox="0 0 32 32" fill="none" xmlns="http://www.w3.org/2000/svg">
<path d="M28 16C28 16.2652 27.8946 16.5196 27.7071 16.7071C27.5196 16.8946 27.2652 17 27 17H15V25C15.0001 25.1979 14.9416 25.3914 14.8317 25.556C14.7218 25.7206 14.5656 25.8489 14.3828 25.9246C14.2 26.0004 13.9988 26.0202 13.8047 25.9815C13.6106 25.9429 13.4323 25.8475 13.2925 25.7075L4.29249 16.7075C4.19952 16.6146 4.12576 16.5043 4.07543 16.3829C4.02511 16.2615 3.99921 16.1314 3.99921 16C3.99921 15.8686 4.02511 15.7385 4.07543 15.6171C4.12576 15.4957 4.19952 15.3854 4.29249 15.2925L13.2925 6.29249C13.4323 6.15248 13.6106 6.05712 13.8047 6.01846C13.9988 5.97981 14.2 5.99962 14.3828 6.07537C14.5656 6.15112 14.7218 6.27942 14.8317 6.44401C14.9416 6.60861 15.0001 6.8021 15 6.99999V15H27C27.2652 15 27.5196 15.1054 27.7071 15.2929C27.8946 15.4804 28 15.7348 28 16Z"/>
</svg>
