<svg width="32" height="32" viewBox="0 0 32 32" fill="none" xmlns="http://www.w3.org/2000/svg">
<path d="M12.085 7.23377C12.0259 7.16908 11.9849 7.09 11.966 7.00447C11.9471 6.91893 11.9511 6.82994 11.9774 6.74639C12.0037 6.66285 12.0515 6.58769 12.1161 6.52844C12.1806 6.46918 12.2595 6.42792 12.345 6.40877C13.544 6.13479 14.7701 5.99766 16 6.00002C20.36 6.00002 24.3212 7.65752 27.4575 10.7938C29.8112 13.1475 30.87 15.4963 30.9137 15.595C30.9706 15.7229 31 15.8613 31 16.0013C31 16.1412 30.9706 16.2796 30.9137 16.4075C30.87 16.5063 29.8112 18.8538 27.4575 21.2075C27.1008 21.5625 26.7346 21.8988 26.3587 22.2163C26.2599 22.3002 26.1322 22.3425 26.0028 22.3341C25.8733 22.3257 25.7522 22.2673 25.665 22.1713L12.085 7.23377ZM26.74 26.3275C26.8302 26.4244 26.9002 26.5382 26.9461 26.6623C26.9919 26.7864 27.0127 26.9184 27.0072 27.0506C27.0017 27.1829 26.9699 27.3127 26.9139 27.4325C26.8578 27.5524 26.7785 27.66 26.6806 27.7489C26.5827 27.8379 26.468 27.9066 26.3434 27.951C26.2187 27.9954 26.0865 28.0146 25.9543 28.0075C25.8222 28.0003 25.6928 27.9671 25.5736 27.9096C25.4544 27.8521 25.3478 27.7715 25.26 27.6725L22.5 24.6413C20.4531 25.5466 18.2381 26.0096 16 26C11.64 26 7.67874 24.3425 4.54249 21.2075C2.18874 18.8538 1.12499 16.5063 1.08624 16.4075C1.02938 16.2796 1 16.1412 1 16.0013C1 15.8613 1.02938 15.7229 1.08624 15.595C1.12499 15.5 2.18874 13.1475 4.54249 10.7938C5.48285 9.84908 6.53183 9.01913 7.66749 8.32127L5.25999 5.67252C5.16982 5.57567 5.09978 5.46187 5.05391 5.33775C5.00804 5.21362 4.98727 5.08162 4.9928 4.94941C4.99832 4.81719 5.03003 4.68739 5.08609 4.56752C5.14215 4.44765 5.22144 4.3401 5.31938 4.2511C5.41731 4.1621 5.53193 4.09342 5.6566 4.04905C5.78127 4.00467 5.91351 3.98549 6.04564 3.99259C6.17778 3.9997 6.3072 4.03297 6.42639 4.09046C6.54558 4.14795 6.65217 4.22853 6.73999 4.32752L26.74 26.3275ZM18.5537 20.2963L11.9675 13.0463C11.2888 13.9761 10.9518 15.1117 11.0134 16.2613C11.0749 17.4108 11.5312 18.5039 12.3053 19.356C13.0794 20.2081 14.1238 20.767 15.2622 20.9383C16.4006 21.1096 17.5632 20.8828 18.5537 20.2963Z"/>
</svg>
