<svg version="1.1" id="Layer_1" xmlns="http://www.w3.org/2000/svg" xmlns:xlink="http://www.w3.org/1999/xlink" x="0px" y="0px"
	 viewBox="0 0 512 512" style="enable-background:new 0 0 512 512;" xml:space="preserve">
<g>
	<path d="M239.61,445.79V234.04h119.77c0.04,2.2,0.19,4.34,0.19,6.55c0,6.16,4.99,11.14,11.14,11.14c6.16,0,11.14-4.98,11.14-11.14
		c0-2.21-0.17-4.36-0.21-6.55h69.7h15.74h6.55C473.65,104.99,368.65,0,239.61,0h-22.29v1.13C98.7,12.4,5.57,112.52,5.57,234.04
		c0,129.04,104.99,234.04,234.04,234.04c6.16,0,11.14-4.99,11.14-11.14C250.75,450.77,245.77,445.79,239.61,445.79z M217.32,442.1
		c-55.53-17.94-97.68-101.4-97.68-201.51c0-2.21,0.15-4.36,0.19-6.55h97.49V442.1z M120.97,211.75
		c7.2-86.94,46.27-156.48,96.35-172.65v172.65H120.97z M239.61,211.75V35.4c60.41,0,110.4,76.84,118.64,176.34H239.61z
		 M450.16,211.75h-69.57c-6.65-83.53-41.68-152.94-89.15-182.78C376.19,50.42,440.81,122.86,450.16,211.75z M187.78,28.97
		c-47.47,29.84-82.5,99.24-89.15,182.78H29.06C38.4,122.86,103.03,50.42,187.78,28.97z M27.86,234.04h69.7
		c-0.04,2.2-0.21,4.34-0.21,6.55c0,79.5,25.68,149.5,64.42,190.18C83.46,399.67,27.86,323.3,27.86,234.04z"/>
	<path d="M506.43,496.24l-54.79-54.79c13.74-17.16,22.01-38.89,22.01-62.53c0-55.31-44.99-100.3-100.3-100.3
		c-55.31,0-100.3,44.99-100.3,100.3s44.99,100.3,100.3,100.3c23.65,0,45.37-8.27,62.53-22.01L490.67,512L506.43,496.24z
		 M295.33,378.92c0-43.01,35-78.01,78.01-78.01c43.01,0,78.01,35,78.01,78.01s-35,78.01-78.01,78.01
		C330.33,456.93,295.33,421.93,295.33,378.92z"/>
</g>
</svg>
